<svg width="28" height="24" viewBox="0 0 28 24" fill="currentColor" xmlns="http://www.w3.org/2000/svg">
<g clip-path="url(#clip0_10_115)">
<path fill-rule="evenodd" clip-rule="evenodd" d="M15.8265 7.38895C16.0404 7.04219 16.1538 6.6415 16.1538 6.23258V2.18182H17.056C18.001 2.18182 18.7691 2.785 18.9617 3.61228C19.1943 4.61191 19.3846 5.70236 19.3846 6.54545C19.3846 7.1834 19.2743 7.84571 19.1193 8.45497L18.7724 9.81818H20.162H23.1538C24.046 9.81818 24.7692 10.5508 24.7692 11.4545C24.7692 11.5559 24.7603 11.6543 24.7434 11.749L24.6567 12.2344L24.9592 12.6209C25.1778 12.9002 25.3077 13.2514 25.3077 13.6364C25.3077 14.0213 25.1778 14.3725 24.9592 14.6518L24.6567 15.0383L24.7434 15.5237C24.7603 15.6185 24.7692 15.7168 24.7692 15.8182C24.7692 16.3528 24.5172 16.8276 24.1224 17.1279L23.6923 17.4552V18.0001C23.6922 18.9038 22.969 19.6364 22.0769 19.6364H19.3846H18.3077H17.9015C16.8597 19.6364 15.8247 19.4662 14.8364 19.1326L13.2286 18.5896C12.088 18.2044 10.8944 18.0056 9.6923 18.0001V12.8229L11.8845 12.1884C12.6531 11.966 13.3129 11.4628 13.7366 10.7761L15.8265 7.38895ZM15.6154 0C14.7233 0 14 0.732622 14 1.63636V6.23258L11.9101 9.61975C11.7689 9.84862 11.5489 10.0164 11.2927 10.0906L9.10059 10.7251C8.17594 10.9927 7.53845 11.8487 7.53845 12.8229V18.0511C7.53845 19.2278 8.48019 20.1818 9.64189 20.1818C10.6294 20.1818 11.6105 20.3431 12.5474 20.6594L14.1554 21.2024C15.3633 21.6103 16.6282 21.8182 17.9015 21.8182H18.3077H19.3846H22.0769C23.9822 21.8182 25.5574 20.3861 25.8106 18.5266C26.4965 17.8359 26.9231 16.8773 26.9231 15.8182C26.9231 15.7493 26.9212 15.6809 26.9177 15.6129C27.2626 15.036 27.4615 14.3588 27.4615 13.6364C27.4615 12.914 27.2626 12.2367 26.9177 11.66C26.9212 11.5918 26.9231 11.5234 26.9231 11.4545C26.9231 9.34582 25.2355 7.63636 23.1538 7.63636H21.4672C21.5117 7.28236 21.5385 6.91608 21.5385 6.54545C21.5385 5.44216 21.3002 4.15212 21.058 3.11165C20.6124 1.19675 18.8922 0 17.056 0H15.6154Z"/>
<path fill-rule="evenodd" clip-rule="evenodd" d="M8.288 9.57076C8.50198 9.22401 8.61538 8.82331 8.61538 8.4144V4.36363H9.51752C10.4625 4.36363 11.2307 4.96682 11.4232 5.7941C11.6559 6.79372 11.8462 7.88417 11.8462 8.72727C11.8462 9.36521 11.7359 10.0275 11.5808 10.6368L11.2339 12H12.6236H15.6154C16.5075 12 17.2308 12.7327 17.2308 13.6364C17.2308 13.7377 17.2218 13.8361 17.2049 13.9308L17.1182 14.4163L17.4207 14.8028C17.6394 15.082 17.7692 15.4332 17.7692 15.8182C17.7692 16.2032 17.6394 16.5543 17.4207 16.8336L17.1182 17.2201L17.2049 17.7056C17.2218 17.8004 17.2308 17.8987 17.2308 18C17.2308 18.5347 16.9788 19.0094 16.584 19.3097L16.1538 19.637V20.1819C16.1537 21.0856 15.4306 21.8182 14.5385 21.8182H11.8462H10.7692H10.363C9.3212 21.8182 8.28628 21.648 7.29802 21.3144L5.69009 20.7715C4.54954 20.3863 3.35588 20.1874 2.15385 20.1819V15.0047L4.34601 14.3702C5.1146 14.1478 5.77449 13.6447 6.19814 12.9579L8.288 9.57076ZM8.07692 2.18182C7.18477 2.18182 6.46154 2.91444 6.46154 3.81818V8.4144L4.37168 11.8016C4.23047 12.0304 4.0105 12.1982 3.7543 12.2724L1.56214 12.9069C0.637485 13.1745 0 14.0305 0 15.0047V20.2329C0 21.4096 0.941737 22.3636 2.10344 22.3636C3.091 22.3636 4.0721 22.5249 5.00899 22.8412L6.61691 23.3842C7.82481 23.7921 9.08977 24 10.363 24H10.7692H11.8462H14.5385C16.4438 24 18.019 22.568 18.2722 20.7084C18.958 20.0177 19.3846 19.0592 19.3846 18C19.3846 17.9312 19.3828 17.8628 19.3792 17.7947C19.7242 17.2178 19.9231 16.5406 19.9231 15.8182C19.9231 15.0958 19.7242 14.4185 19.3792 13.8418C19.3828 13.7736 19.3846 13.7052 19.3846 13.6364C19.3846 11.5276 17.6971 9.81818 15.6154 9.81818H13.9287C13.9733 9.46418 14 9.0979 14 8.72727C14 7.62398 13.7618 6.33394 13.5196 5.29347C13.074 3.37857 11.3538 2.18182 9.51752 2.18182H8.07692Z"/>
</g>
<defs>
<clipPath id="clip0_10_115">
<rect width="28" height="24"/>
</clipPath>
</defs>
</svg>
