<svg width="24" height="24" viewBox="0 0 24 24" fill="none" xmlns="http://www.w3.org/2000/svg">
<path d="M13.6216 17.1444C13.6216 16.6944 13.7578 16.254 14.016 15.8724L16.5341 12.1464C17.0439 11.3916 17.8378 10.8372 18.7641 10.5924L21.4054 9.8952V4.2C19.9576 4.194 18.5189 3.9756 17.1451 3.552L15.2082 2.9544C14.0173 2.5872 12.7706 2.4 11.5161 2.4H6.48649C5.41232 2.4 4.54054 3.2064 4.54054 4.2V4.7988L4.02292 5.1588C3.54681 5.4888 3.24324 6.012 3.24324 6.6C3.24324 6.7116 3.25362 6.8196 3.27438 6.924L3.37946 7.458L3.01492 7.8828C2.75157 8.19 2.59459 8.5764 2.59459 9C2.59459 9.4236 2.75157 9.81 3.01492 10.1172L3.37946 10.542L3.27438 11.076C3.25362 11.1804 3.24324 11.2884 3.24324 11.4C3.24324 12.3936 4.11503 13.2 5.18919 13.2H10.4679L10.0489 14.7C9.86205 15.3696 9.72973 16.098 9.72973 16.8C9.72973 17.7276 9.95935 18.9276 10.2396 20.0268C10.4718 20.9364 11.3968 21.6 12.5345 21.6H13.6216V17.1444ZM16.2162 22.2C16.2162 23.1936 15.3444 24 14.2703 24H12.5345C10.3226 24 8.25081 22.6836 7.71373 20.5776C7.42184 19.4328 7.13513 18.0132 7.13513 16.8C7.13513 16.392 7.16757 15.9888 7.22076 15.6H5.18919C2.68151 15.6 0.648649 13.7196 0.648649 11.4C0.648649 11.3244 0.651243 11.2488 0.655135 11.1744C0.240001 10.5396 0 9.7944 0 9C0 8.2056 0.240001 7.4604 0.655135 6.8256C0.651243 6.7512 0.648649 6.6756 0.648649 6.6C0.648649 5.4348 1.16238 4.38 1.98876 3.6204C2.29362 1.5744 4.19157 0 6.48649 0H11.5161C13.0495 0 14.5738 0.228 16.0294 0.6768L17.9663 1.2744C19.0949 1.6224 20.2768 1.8 21.4664 1.8C22.8662 1.8 24 2.8488 24 4.1436V9.8952C24 10.9668 23.232 11.9088 22.1176 12.2028L19.4776 12.9C19.1689 12.9816 18.9042 13.1664 18.7343 13.4184L16.2162 17.1444V22.2Z" fill="currentColor"/>
</svg>
