<svg width="24" height="24" viewBox="0 0 24 24" fill="none" xmlns="http://www.w3.org/2000/svg">
<path fill-rule="evenodd" clip-rule="evenodd" d="M9.984 8.12784C10.2418 7.74641 10.3784 7.30565 10.3784 6.85584V2.4H11.4651C12.6035 2.4 13.5289 3.0635 13.7608 3.97351C14.041 5.0731 14.2703 6.27259 14.2703 7.2C14.2703 7.90174 14.1374 8.63028 13.9506 9.30047L13.5328 10.8H15.2068H18.8108C19.8855 10.8 20.7568 11.6059 20.7568 12.6C20.7568 12.7115 20.746 12.8197 20.7256 12.9239L20.6212 13.4579L20.9856 13.883C21.2489 14.1902 21.4054 14.5765 21.4054 15C21.4054 15.4235 21.2489 15.8098 20.9856 16.117L20.6212 16.5421L20.7256 17.0761C20.746 17.1804 20.7568 17.2885 20.7568 17.4C20.7568 17.9881 20.4532 18.5104 19.9776 18.8407L19.4595 19.2007V19.8001C19.4593 20.7942 18.5882 21.6 17.5135 21.6H14.2703H12.973H12.4836C11.2286 21.6 9.98192 21.4128 8.79143 21.0458L6.85448 20.4486C5.48052 20.0249 4.0426 19.8061 2.59459 19.8001V14.1052L5.23535 13.4072C6.16122 13.1626 6.95615 12.6091 7.46649 11.8537L9.984 8.12784ZM9.72973 0C8.65501 0 7.78378 0.805884 7.78378 1.8V6.85584L5.26627 10.5817C5.09616 10.8335 4.83119 11.018 4.52256 11.0996L1.88181 11.7976C0.767935 12.0919 0 13.0336 0 14.1052V19.8562C0 21.1506 1.13445 22.2 2.53387 22.2C3.72352 22.2 4.90539 22.3774 6.034 22.7254L7.97094 23.3226C9.42603 23.7713 10.9498 24 12.4836 24H12.973H14.2703H17.5135C19.8087 24 21.7062 22.4248 22.0112 20.3792C22.8375 19.6195 23.3514 18.5651 23.3514 17.4C23.3514 17.3243 23.3491 17.249 23.3449 17.1742C23.7604 16.5396 24 15.7946 24 15C24 14.2054 23.7604 13.4604 23.3449 12.826C23.3491 12.751 23.3514 12.6757 23.3514 12.6C23.3514 10.2804 21.3185 8.4 18.8108 8.4H16.779C16.8327 8.0106 16.8649 7.60769 16.8649 7.2C16.8649 5.98638 16.5779 4.56733 16.2861 3.42282C15.7493 1.31642 13.6771 0 11.4651 0H9.72973Z" fill="currentColor"/>
</svg>
