<svg viewBox="0 0 24 24" fill="none" xmlns="http://www.w3.org/2000/svg" class="Hawkins-Icon Hawkins-Icon-Standard"><path fill-rule="evenodd" clip-rule="evenodd" d="M17.313 2.50407L17.407 3.25579C17.4688 3.75001 17.4688 4.24999 17.407 4.74421L17.125 7H21.5C22.3284 7 23 7.67157 23 8.5C23 9.02174 22.7336 9.48127 22.3295 9.75H22.5C23.3284 9.75 24 10.4216 24 11.25C24 11.9804 23.478 12.5888 22.7867 12.7226C23.2148 12.9868 23.5 13.4601 23.5 14C23.5 14.8284 22.8284 15.5 22 15.5H21.6181C21.8556 15.7654 22 16.1158 22 16.5C22 17.3284 21.3284 18 20.5 18H20H17.9195C17.9722 17.7585 18 17.5075 18 17.25C18 16.2903 17.6138 15.4209 16.9883 14.7886C16.996 14.6934 17 14.5972 17 14.5C17 12.567 15.433 11 13.5 11H11.3906L11.3915 10.9923C11.4739 10.3333 11.4739 9.66668 11.3915 9.00772L11.2976 8.256L10.0645 8.41013L11.2976 8.256C11.2865 8.16745 11.2731 8.0797 11.2574 7.99281C11.519 7.83232 11.7422 7.61247 11.9074 7.34813L13.848 4.2432C13.9473 4.08427 14 3.90062 14 3.7132V0.47644C14 0.21331 14.2133 0 14.4764 0C15.9181 0 17.1342 1.07353 17.313 2.50407ZM9.31301 8.50407L9.40697 9.25579C9.46875 9.75001 9.46875 10.25 9.40697 10.7442L9.125 13H13.5C14.3284 13 15 13.6716 15 14.5C15 15.0217 14.7336 15.4813 14.3294 15.75H14.5C15.3284 15.75 16 16.4216 16 17.25C16 17.9804 15.478 18.5888 14.7867 18.7226C15.2147 18.9868 15.5 19.4601 15.5 20C15.5 20.8284 14.8284 21.5 14 21.5H13.6181C13.8556 21.7654 14 22.1158 14 22.5C14 23.3284 13.3284 24 12.5 24H12H9H8.01556C6.69475 24 5.39679 23.6553 4.25 23L4.07684 22.9011C3.04352 22.3106 1.874 22 0.683874 22C0.306181 22 0 21.6938 0 21.3161V15.7543C0 15.3078 0.295977 14.9154 0.725279 14.7928L2.76086 14.2112C3.23665 14.0752 3.64516 13.7677 3.90742 13.3481L5.848 10.2432C5.94733 10.0843 6 9.90062 6 9.7132V6.47644C6 6.21331 6.21331 6 6.47644 6C7.91812 6 9.13419 7.07353 9.31301 8.50407Z" fill="currentColor"></path></svg>